<?xml version="1.0" encoding="UTF-8"?>
<svg id="Capa_1" xmlns="http://www.w3.org/2000/svg" version="1.1" viewBox="0 0 82.72 84.45">
  <!-- Generator: Adobe Illustrator 30.6.0, SVG Export Plug-In . SVG Version: 2.1.4 Build 109)  -->
  <defs>
    <style>
      .st0 {
        fill: #fff;
      }

      .st1 {
        fill: #e72d7b;
      }
    </style>
  </defs>
  <rect class="st1" x="-27.57" y="-29.37" width="129.26" height="124.16"/>
  <g>
    <path class="st0" d="M68.85,24.15c-.15-.73-.38-1.47-.67-2.17s-.65-1.38-1.08-1.99c-.44-.62-.91-1.2-1.47-1.76-.56-.53-1.14-1.03-1.76-1.44-.62-.41-1.32-.79-2.02-1.06-.7-.29-1.44-.5-2.2-.64-.76-.15-1.52-.21-2.29-.21h-31.99c-.76,0-1.52.09-2.29.23-.76.15-1.5.38-2.2.67-.7.29-1.38.64-2.02,1.06-.65.41-1.23.91-1.76,1.44-.56.53-1.03,1.11-1.47,1.76-.44.62-.79,1.29-1.08,1.99s-.53,1.41-.67,2.17c-.15.73-.23,1.5-.23,2.26v31.55c0,.76.09,1.5.23,2.26.15.73.38,1.47.67,2.17s.65,1.38,1.08,1.99c.44.62.91,1.2,1.47,1.76.56.53,1.14,1.03,1.76,1.44.65.41,1.32.76,2.02,1.06.7.29,1.44.5,2.2.64.76.15,1.52.23,2.29.23h31.99c.76,0,1.52-.09,2.29-.23.76-.15,1.5-.38,2.2-.64.7-.29,1.38-.64,2.02-1.06.64-.41,1.23-.91,1.76-1.44.56-.53,1.03-1.11,1.47-1.76.44-.62.79-1.29,1.08-1.99.29-.7.53-1.41.67-2.17.15-.73.23-1.5.23-2.26v-31.61c0-.76-.09-1.5-.23-2.26ZM65.33,57.95c0,.53-.06,1.03-.15,1.52-.12.5-.26,1-.47,1.47-.21.47-.44.94-.73,1.35-.29.44-.62.82-1,1.2-.38.35-.76.67-1.2.97-.44.29-.88.53-1.38.73-.47.21-.97.35-1.5.44-.5.09-1.03.15-1.55.15h-31.99c-.53,0-1.03-.06-1.55-.15-.5-.09-1-.26-1.5-.44-.47-.21-.94-.44-1.38-.73-.44-.29-.82-.62-1.2-.97-.38-.35-.7-.76-1-1.2-.29-.44-.53-.88-.73-1.35-.21-.47-.35-.97-.47-1.47-.12-.5-.15-1.03-.15-1.52v-31.55c0-.53.06-1.03.15-1.52.12-.5.26-1,.47-1.47.21-.47.44-.94.73-1.35.29-.44.62-.82,1-1.2.38-.35.76-.7,1.2-.97.44-.29.88-.53,1.38-.73.5-.21.97-.35,1.5-.44.5-.09,1.03-.15,1.55-.15h31.99c.53,0,1.03.06,1.55.15.5.09,1,.26,1.5.44.47.21.94.44,1.38.73.44.29.85.62,1.2.97.38.35.7.76,1,1.2.29.44.53.88.73,1.35.21.47.35.97.47,1.47.12.5.15,1.03.15,1.52v31.55Z"/>
    <path class="st0" d="M51.17,32.86c-5.31,0-9.5,3.81-9.5,9.53,0,4.75,2.99,9.32,9.41,9.32s9.35-4.66,9.38-9.32c.06-4.72-3.05-9.47-9.29-9.53ZM51.08,48.57c-4.31,0-5.92-3.17-6.01-6.16-.09-3.58,2.2-6.48,6.1-6.48,4.22.09,5.95,3.43,5.92,6.45-.06,3.02-1.67,6.19-6.01,6.19Z"/>
    <path class="st0" d="M31.38,43.85h4.66v3.2c-.59.5-1.2.85-1.94,1.11-.7.23-1.44.35-2.2.35-4.54,0-6.3-3.08-6.3-6.04,0-3.72,2.37-6.66,6.3-6.66.88,0,1.7.18,2.49.47.79.32,1.52.76,2.17,1.32l2.14-2.17c-.91-.88-1.94-1.55-3.14-2.05-1.2-.5-2.4-.7-3.66-.7-6.48,0-9.7,4.69-9.7,9.76,0,4.75,2.79,9.21,9.68,9.21,1.41.03,2.76-.23,4.02-.79,1.29-.56,2.37-1.38,3.25-2.46v-7.62h-7.77v3.08Z"/>
  </g>
</svg>